<svg id="Layer_1" data-name="Layer 1" xmlns="http://www.w3.org/2000/svg" width="688.955" height="187.036" viewBox="0 0 688.955 187.036"><defs><style>.cls-1{fill:#fff;}</style></defs><title>title</title><path class="cls-1" d="M12.091,58.051c0-4.59,3.15-11.61,19.169-11.61,16.739,0,25.649,9.63,25.649,19.169a11.171,11.171,0,0,1-.27,2.43c3.51-2.16,5.85-5.4,5.85-9.9,0-15.209-30.329-14.939-30.329-34.2,0-13.23,15.119-17.46,25.649-17.46,7.92,0,10.619,2.611,13.59,2.611a2.136,2.136,0,0,0,2.339-1.531c.36-.81,1.17-.54.99.18l-4.05,15.03c-.179.9-1.17.63-.989-.27a13.249,13.249,0,0,0,.359-3.24c0-5.49-3.33-10.71-12.509-10.71-8.369,0-14.22,4.41-14.22,10.35,0,12.69,29.7,14.039,29.7,33.838,0,10.17-7.829,16.29-17.549,19.17-2.88,6.03-9.81,10.979-20.429,10.979A46.175,46.175,0,0,1,19.561,79.92c-.54-.18-.361-1.171.36-.9a31.8,31.8,0,0,0,10.169,1.89c7.02,0,12.419-2.969,15.569-7.2-1.529.09-3.059.18-4.5.18C26.85,73.89,12.091,67.86,12.091,58.051ZM47.19,71.28a15.7,15.7,0,0,0,1.71-7.2c-.091-7.83-5.851-15.57-16.11-15.57-8.46,0-10.17,6.21-10.17,9.72,0,6.3,6.3,13.5,19.349,13.5A35.086,35.086,0,0,0,47.19,71.28Z" transform="translate(-5.523 -6.482)"/><path class="cls-1" d="M83.1,60.48c-.9,0-.9-.9,0-.81,1.44-.18,6.93-.72,8.37-2.88,1.08-2.61,1.44-7.469,1.44-16.739v-2.34c0-9.18-.36-14.129-1.44-16.739-1.44-2.16-6.93-2.7-8.37-2.88-.9.09-.9-.81,0-.81,4.32,0,12.24.63,15.39.63,4.5,0,9.539-1.35,15.659-1.35,13.14,0,21.6,1.62,21.6,13.409,0,7.11-4.5,12.78-22.139,12.78a30.635,30.635,0,0,1-7.29-.81c0,8.009.36,12.329,1.44,14.849,1.35,2.16,6.93,2.7,8.37,2.88.9-.09.9.81,0,.81-7.02,0-15.3-.81-16.559-.81C98.4,59.67,90.12,60.48,83.1,60.48Zm24.3-38.608c-.9,2.88-1.081,7.74-1.081,15.929v2.07a22.371,22.371,0,0,0,5.85.63c6.21,0,8.55-4.86,8.55-9.9,0-9-1.89-11.879-7.11-11.879C110.819,18.722,108.389,19.532,107.4,21.872Z" transform="translate(-5.523 -6.482)"/><path class="cls-1" d="M139.8,60.48c-.81,0-.81-.81,0-.9,4.41-.36,6.84-.81,8.19-2.88,1.26-2.43,1.53-7.2,1.53-16.649v-2.34c0-9.539-.27-14.219-1.53-16.649-1.44-2.16-3.78-2.52-8.19-2.88-.81-.09-.81-.9,0-.9,5.31,0,10.53.81,16.289.81,1.26-.09,5.67-.99,12.15-1.53a11.526,11.526,0,0,1,2.97-.09c12.959,0,21.329,2.43,21.329,12.51,0,5.309-2.7,9.719-11.25,11.7,5.67,1.89,8.64,6.57,10.53,10.979,2.34,5.85,4.68,17.1,14.759,17.1.54,0,2.43-.27,3.42-.36a.409.409,0,1,1,.09.81,72.255,72.255,0,0,1-14.129,1.62c-9,0-12.87-4.41-17.01-13.949-3.239-7.74-5.129-14.67-10.889-15.03a38.731,38.731,0,0,1-5.58-.36c0,8.189.36,12.87,1.53,15.209,1.44,2.16,3.78,2.52,8.19,2.88.9.09.81.9,0,.9-6.93,0-14.94-.81-16.2-.81S146.73,60.48,139.8,60.48Zm23.669-38.428c-.81,2.97-.99,7.83-.99,15.659v1.71a24.282,24.282,0,0,0,4.77.36c8.46,0,10.71-4.86,10.71-10.89,0-7.379-2.97-10.349-8.19-10.349A6.551,6.551,0,0,0,163.469,22.052Z" transform="translate(-5.523 -6.482)"/><path class="cls-1" d="M207.209,60.48c-.9,0-.9-.9,0-.81,1.44-.18,6.93-.63,8.279-2.88,1.171-2.429,1.531-7.919,1.531-16.739v-2.34c0-8.82-.36-14.309-1.531-16.739-1.349-2.25-6.839-2.7-8.279-2.88-.9.09-.9-.81,0-.81,7.02,0,15.3.81,16.469.81,1.26,0,9.54-.81,16.559-.81.9,0,.9.9,0,.81-1.44.18-7.019.72-8.369,2.88-1.17,2.43-1.44,7.919-1.44,16.739v2.34c0,8.82.27,14.31,1.44,16.739,1.35,2.25,6.929,2.7,8.369,2.88.9-.09.9.81,0,.81-7.019,0-15.3-.81-16.559-.81C222.508,59.67,214.229,60.48,207.209,60.48Z" transform="translate(-5.523 -6.482)"/><path class="cls-1" d="M310.885,17.282c.9,0,.9.9.09.9-2.25.09-6.48.63-7.83,2.79-1.17,2.61-1.44,7.559-1.44,16.739V60.57c0,.81-.18.81-1.26.18L258.507,34.831v5.22c0,9.27.27,14.129,1.44,16.739,1.349,2.16,5.579,2.7,7.829,2.79.99,0,.811.9,0,.9a94.419,94.419,0,0,1-11.789-.81,90.231,90.231,0,0,1-11.7.81c-.9,0-.9-.9,0-.9,2.25-.09,6.48-.63,7.83-2.79,1.17-2.61,1.44-7.469,1.44-16.739v-2.34l.09-19.619v-1.08c0-.63.36-.54,1.44.09l41.578,25.2v-4.59c0-9.18-.27-14.129-1.349-16.739-1.44-2.16-5.67-2.7-7.831-2.79-.989,0-.9-.9,0-.9a90.231,90.231,0,0,1,11.7.81A95.812,95.812,0,0,1,310.885,17.282Z" transform="translate(-5.523 -6.482)"/><path class="cls-1" d="M368.844,37.261c.18.72-.36.99-.719.27-4.141-9.089-9.54-18.179-19.62-18.179-11.609,0-18.449,11.61-18.449,26.549,0,14.4,6.48,27.449,18.269,27.449,4.5,0,7.83-1.71,7.83-11.34,0-.27.09-1.35.09-2.7,0-.99-.09-2.25-.18-3.42-.54-4.949-1.62-4.769-9.63-6.21-1.17-.269-.27-1.259.54-1.259.27,0,19.349.9,21.239.9,1.26.09,1.621.18,1.621,1.53l-.271,15.209a4.089,4.089,0,0,1-.72,2.07c-3.509,4.86-12.059,7.469-21.959,7.469-21.6,0-32.669-12.779-32.669-29.158,0-15.93,10.53-30.059,33.389-30.059,5.94,0,7.92.99,13.77,3.51a6.8,6.8,0,0,0,2.429.63c1.89,0,1.441-1.53,1.531-2.34.179-.72.719-.54.809-.18Z" transform="translate(-5.523 -6.482)"/><path class="cls-1" d="M157.526,131.6c1.17,4.86,3.78,5.67,10.17,6.39a.5.5,0,1,1-.09.99c-24.029,0-24.3-.63-25.739-6.75l-3.42-14.759-33.659.54-7.2,9.63C76.08,156.349,57.45,169.4,32.881,169.4c-20.069,0-27.358-8.46-27.358-17.82,0-10.71,10.079-17.459,27.628-18.989.63-.09.99.9.09.99-12.059,1.53-17.279,8.64-17.279,16.65,0,10.439,7.56,16.649,18.989,16.649,18.179,0,35.639-13.05,56.518-40.5l37.259-48.508c-1.8-2.61-5.31-3.6-12.06-3.6-17.549,0-40.228,8.55-40.228,31.949,0,4.59.989,14.4,9.179,19.35.45.269.36,1.08-.45.809C70.23,121.431,66,112.7,66,104.692c0-27.45,37.979-33.21,57.238-33.21,12.869,0,20.249,2.16,24.029,16.47Zm-49.588-17.639,29.969.989-7.2-31.318Z" transform="translate(-5.523 -6.482)"/><path class="cls-1" d="M218.367,125.571c-.45.99-.9.99-1.44.089-6.75-12.239-11.969-21.419-15.659-27.809l-15.39,27.72c-.54.99-.99.99-1.53.089C170.129,99.831,162.659,87.412,162.3,86.872c-2.16-2.7-4.95-3.24-7.83-3.69-.54-.09-.54-.9,0-.9,3.33,0,14.13.81,14.58.81.36,0,10.529-.81,14.489-.81.63,0,.63.72,0,.9-2.34.63-3.869.81-5.039,1.53-.9.54-.361,2.07-.091,2.61,1.44,2.43,3.87,6.209,11.79,22.139l8.46-16.019c-2.52-4.14-3.87-6.3-3.96-6.57-2.16-2.7-4.68-3.24-7.56-3.69-.54-.09-.63-.9,0-.9,3.24,0,13.95.81,14.4.81.36,0,10.439-.81,14.579-.81.45,0,.54.72,0,.9-2.43.63-3.78.81-4.95,1.53-.99.54-.45,2.07-.18,2.61,1.44,2.43,3.69,6.209,11.789,22.139,8.64-17.369,9.45-19.979,10.71-23.039a1.423,1.423,0,0,0-.45-1.8c-1.17-.63-2.25-.99-5.49-1.44-.45-.09-.629-.9,0-.9a93.958,93.958,0,0,1,10.35.81,87.623,87.623,0,0,1,9.72-.81c.45,0,.54.81,0,.9-3.6.54-5.76.63-7.65,3.24C239.246,87.592,233.666,97.761,218.367,125.571Z" transform="translate(-5.523 -6.482)"/><path class="cls-1" d="M262.108,82.192c.54-.99,1.08-.9,1.62-.09,14.939,25.559,22.948,37.888,23.309,38.339,2.25,2.79,5.039,3.689,8.189,4.139.54.09.54.9,0,.9-3.6,0-14.759-.811-15.3-.811-.36,0-10.8.811-15.12.811-.63,0-.539-.72,0-.9,2.611-.63,3.96-.809,5.31-1.529.9-.631.36-2.25.09-2.7l-2.7-4.77-19.349.54c-1.08,2.43-1.62,3.869-2.16,5.129-.27.54-.18,1.62.54,1.891,1.26.63,2.16.989,5.58,1.439.54.09.72.9,0,.9a102.139,102.139,0,0,1-10.71-.811c-.719,0-6.749.811-11.519.811-.45,0-.54-.811,0-.9,3.87-.54,6.03-.63,8.01-3.33C238.619,120.171,246,109.911,262.108,82.192Zm-12.24,30.329,16.289.72c-1.889-3.33-4.59-8.1-8.549-15.3C253.918,104.692,251.488,109.191,249.868,112.521Z" transform="translate(-5.523 -6.482)"/><path class="cls-1" d="M298.107,125.481c-.81,0-.9-.811,0-.9,4.23-.359,6.84-.809,8.28-2.88,1.17-2.339,1.53-7.019,1.53-16.649v-2.34c0-10.26-.36-14.219-1.621-16.649-2.159-2.97-6.569-2.52-8.189-2.88-.81-.27-.81-.9,0-.9,7.02,0,15.3.81,16.469.81,1.261,0,9.54-.81,16.56-.81.81,0,.9.81,0,.9-4.23.36-6.84.72-8.28,2.88-1.26,2.34-1.53,6.84-1.53,16.109l19.979-15.659c1.89-1.53.81-3.15-3.15-3.33-.719,0-.719-.9,0-.9a64.975,64.975,0,0,1,10.62.81,116.333,116.333,0,0,1,11.879-.81c.721,0,.81.63,0,.9-5.94,1.62-7.919,2.16-11.879,4.77l-21.419,13.77c19.528-.091,22.049,7.739,24.749,15.209,3.329,9.18,8.279,22.229,16.469,22.229a12.88,12.88,0,0,0,3.15-.45.473.473,0,1,1,.27.9,46.341,46.341,0,0,1-11.249,1.17c-13.95,0-19.35-8.73-23.579-20.969-2.971-8.46-4.59-15.749-15.84-16.02v1.26c0,10.26.27,14.22,1.62,16.649,2.07,2.97,6.57,2.611,8.19,2.88.81.361.81.9,0,.9-7.02,0-15.3-.811-16.56-.811C313.406,124.67,305.127,125.481,298.107,125.481Z" transform="translate(-5.523 -6.482)"/><path class="cls-1" d="M365.966,125.481c-.9,0-.99-.9,0-.9,2.521-.09,8.01-.809,9.18-3.87.63-2.88.9-7.739.9-15.659v-2.34c0-8.01-.27-12.779-.9-15.659-1.17-3.15-6.659-3.78-9.18-3.87-.99,0-.9-.9,0-.9,5.58,0,15.93.9,17.01.81.81,0,7.56-.63,10.8-.72,14.58-.27,14.85-.09,15.39-.9.63,0,.81.9.81,1.17l2.249,13.05a.414.414,0,1,1-.809.179c-1.71-6.84-6.75-10.619-11.789-10.619-1.531,0-2.79.09-3.96.09-5.04.36-5.58,1.35-5.76,3.06-.271,2.79-.36,7.2-.36,13.5h2.7c5.849,0,9.809-3.871,10.259-7.29a.4.4,0,1,1,.81,0c0,2.609-.269,6.389-.269,8.729,0,2.79.269,5.49.269,8.82,0,.54-.72.54-.81,0-.54-3.96-4.5-7.559-10.259-7.559h-2.7c0,6.479.179,10.979.45,14.129.63,3.6,4.05,3.78,10.439,3.78,3.78,0,9.54-1.44,14.13-10.71a.378.378,0,0,1,.72.18l-3.42,12.149c-.45,1.71-.36,2.16-.9,2.16-.629-.719-.809-.809-11.338-.809h-3.061c-6.3,0-12.779-.811-13.769-.811C381.536,124.67,373.077,125.481,365.966,125.481Z" transform="translate(-5.523 -6.482)"/><path class="cls-1" d="M484.943,82.282c.9,0,.9.9.09.9-2.25.09-6.48.63-7.829,2.79-1.17,2.61-1.441,7.559-1.441,16.739v22.86c0,.809-.179.809-1.259.179L432.565,99.831v5.22c0,9.27.271,14.13,1.44,16.739,1.35,2.16,5.58,2.7,7.83,2.79.99,0,.81.9,0,.9a94.263,94.263,0,0,1-11.789-.811,90.148,90.148,0,0,1-11.7.811c-.9,0-.9-.9,0-.9,2.25-.09,6.481-.63,7.83-2.79,1.17-2.609,1.441-7.469,1.441-16.739v-2.34l.09-19.619v-1.08c0-.63.359-.54,1.439.09l41.578,25.2v-4.59c0-9.18-.269-14.129-1.349-16.739-1.44-2.16-5.67-2.7-7.83-2.79-.99,0-.9-.9,0-.9a90.251,90.251,0,0,1,11.7.81A95.763,95.763,0,0,1,484.943,82.282Z" transform="translate(-5.523 -6.482)"/><path class="cls-1" d="M489,125.481c-.9,0-.9-.9,0-.811,1.44-.18,6.929-.63,8.279-2.88,1.171-2.429,1.53-7.919,1.53-16.739v-2.34c0-8.82-.359-14.309-1.53-16.739-1.35-2.25-6.839-2.7-8.279-2.88-.9.09-.9-.81,0-.81,7.019,0,15.3.81,16.469.81,1.26,0,9.54-.81,16.559-.81.9,0,.9.9,0,.81-1.439.18-7.019.72-8.369,2.88-1.17,2.43-1.441,7.919-1.441,16.739v2.34c0,8.82.271,14.31,1.441,16.739,1.35,2.25,6.93,2.7,8.369,2.88.9-.09.9.811,0,.811-7.019,0-15.3-.811-16.559-.811C504.3,124.67,496.014,125.481,489,125.481Z" transform="translate(-5.523 -6.482)"/><path class="cls-1" d="M594.471,82.282c.9,0,.9.9.09.9-2.25.09-6.479.63-7.83,2.79-1.17,2.61-1.439,7.559-1.439,16.739v22.86c0,.809-.18.809-1.26.179L542.093,99.831v5.22c0,9.27.27,14.13,1.44,16.739,1.349,2.16,5.58,2.7,7.83,2.79.989,0,.809.9,0,.9a94.311,94.311,0,0,1-11.79-.811,90.1,90.1,0,0,1-11.7.811c-.9,0-.9-.9,0-.9,2.25-.09,6.479-.63,7.83-2.79,1.17-2.609,1.439-7.469,1.439-16.739v-2.34l.09-19.619v-1.08c0-.63.36-.54,1.44.09l41.579,25.2v-4.59c0-9.18-.27-14.129-1.35-16.739-1.44-2.16-5.67-2.7-7.83-2.79-.99,0-.9-.9,0-.9a90.251,90.251,0,0,1,11.7.81A95.785,95.785,0,0,1,594.471,82.282Z" transform="translate(-5.523 -6.482)"/><path class="cls-1" d="M587.363,176.418c.18-20.159,34.469-31.589,60.657-35.908l.99-3.78a48.1,48.1,0,0,1-13.409,2.25c-21.419,0-37.8-9.81-37.8-29.069,0-1.17.09-2.339.18-3.6,2.431-23.579,24.119-34.829,52.738-34.829a41.493,41.493,0,0,1,20.789,5.76,7.766,7.766,0,0,0,3.6,1.26c1.8,0,2.431-1.53,3.15-3.51.36-.72,1.26-.54.99.18L673.67,96.411c-.271.9-1.17.721-.991-.18a26.842,26.842,0,0,0,.361-3.78c0-11.069-9-18.809-23.039-18.809-21.06,0-35.189,15.66-36.539,34.919-.09,1.17-.18,2.34-.18,3.42,0,18.719,14.129,24.659,24.209,24.659,4.319,0,11.34-1.35,14.4-9.989l1.531-5.491.089-.179a37.014,37.014,0,0,0,.72-5.4c.18-4.05-3.689-4.59-12.329-5.58a.585.585,0,0,1,0-1.17c7.739,0,24.749.63,27,.63,1.53,0,1.8.72,1.44,1.8l-.9,2.97h.091l-6.84,24.479c2.25-.18,4.319-.18,6.209-.18,20.069,0,25.2,6.3,25.56,12.689.54,8.64-10.621,16.38-22.679,18.989-.54.091-.9-.719-.091-.9,8.01-2.16,12.33-8.28,12.33-15.749,0-7.92-4.5-12.87-16.019-12.87-1.89,0-3.87,0-5.94.179l-.81,3.061c-9.63,32.578-25.289,49.588-50.308,49.588C596.272,193.518,587.273,186.678,587.363,176.418Zm24.119,14.94c20.069,0,27.719-21.24,35.549-47.428l.359-1.351c-23.579,4.05-49.408,15.031-49.588,35.19C597.8,187.038,603.833,191.358,611.482,191.358Z" transform="translate(-5.523 -6.482)"/></svg>